<svg width="209" height="36" viewBox="0 0 209 36" fill="none" xmlns="http://www.w3.org/2000/svg">
<path d="M3.95605 9.00812C3.63605 8.41612 3.52077 8.21478 3.61011 8.40411C3.57811 8.35745 3.50728 8.24861 3.39795 8.07794C4.14462 8.30861 5.00928 8.67872 5.99194 9.18805C6.97594 9.69738 8.10794 10.208 9.38794 10.72C10.6679 11.2334 12.5821 12.0293 15.1301 13.108C17.6781 14.188 20.3734 15.67 23.2161 17.554C23.2241 17.2287 20.9933 17.7853 16.5239 19.2239C12.0546 20.6626 7.21333 22.6115 2 25.0701C2.21867 25.0821 2.56475 24.9179 3.03809 24.5779C3.51142 24.2393 3.81739 23.9999 3.95605 23.8599" stroke="#44464A" stroke-width="2.58" stroke-linecap="round" stroke-linejoin="round"/>
<path d="M43.874 10.5999C43.8567 10.5945 43.9799 10.7006 44.2439 10.918C44.0146 11.0233 42.9227 11.6146 40.968 12.6919C39.012 13.7679 37.1513 15.1873 35.386 16.95C35.2727 17.1006 36.096 17.2627 37.856 17.436C39.6173 17.608 40.9646 17.8514 41.8979 18.166C42.8313 18.4794 43.5612 18.7741 44.0879 19.0501C44.6159 19.3261 44.8601 19.6646 44.8201 20.0659C44.7787 20.4673 44.5613 20.8033 44.168 21.074C43.7733 21.3446 42.7407 21.9219 41.0701 22.8059C39.3994 23.6886 36.914 24.43 33.614 25.03C33.7607 24.7527 34.372 24.402 35.448 23.978C36.5253 23.5527 37.4447 23.196 38.2061 22.908C38.9687 22.6213 39.4739 22.4072 39.7219 22.2659" stroke="#44464A" stroke-width="2.5" stroke-linecap="round" stroke-linejoin="round"/>
<path d="M49.8379 19.0439C50.1353 18.9386 50.3907 18.6926 50.604 18.3059C50.636 18.3059 50.6613 18.3059 50.68 18.3059C50.6173 19.0766 50.5847 19.3633 50.5821 19.166C50.1514 19.4367 50.044 21.194 50.26 24.438C50.8147 24.8113 51.708 24.4966 52.94 23.4939C54.1733 22.4912 54.9187 20.628 55.1761 17.904C55.1214 17.7454 54.8921 17.6408 54.4881 17.5901C54.0854 17.5381 53.5601 17.5853 52.9121 17.7319C52.2641 17.8786 51.6814 18.1766 51.1641 18.626C50.6454 19.074 50.2568 19.4852 49.9981 19.8599C49.7408 20.2332 49.6328 20.6532 49.6741 21.1199C49.7168 21.5879 49.8373 21.9479 50.0359 22.1999C50.2346 22.4506 50.3486 22.5914 50.378 22.6221C50.4073 22.6514 50.6606 22.7579 51.138 22.9419C51.6153 23.1259 51.9979 23.2366 52.2859 23.2739C52.5739 23.3113 53.142 23.3267 53.99 23.3201C54.838 23.3147 56.144 22.8667 57.908 21.9761C59.672 21.0854 61.5199 20.0146 63.4519 18.7639C63.2119 18.7079 62.9221 19.054 62.5821 19.802C62.2421 20.5513 62.062 21.142 62.042 21.574C62.0234 22.0073 62.038 22.3473 62.086 22.594C62.134 22.8407 62.2328 23.0353 62.3821 23.178C62.5328 23.3193 62.712 23.3999 62.92 23.4199C63.128 23.4386 63.2021 23.4653 63.1421 23.5C63.0821 23.536 63.8534 23.5387 65.4561 23.5081C65.5028 23.4147 65.5454 23.3259 65.584 23.2419C65.6227 23.1566 65.6726 23.0526 65.7339 22.9299" stroke="#44464A" stroke-width="2.5" stroke-linecap="round" stroke-linejoin="round"/>
<path d="M64.7599 14.6641C64.7613 14.2161 64.7613 13.9953 64.7599 14.002C64.5839 14.03 64.6566 13.8941 64.9779 13.5941C65.2993 13.2927 65.5219 13.1187 65.6459 13.0721" stroke="#44464A" stroke-width="2.5" stroke-linecap="round" stroke-linejoin="round"/>
<path d="M71.94 16.9041C72.0893 16.5935 71.9421 16.8453 71.4981 17.66C71.0541 18.4747 70.7694 19.2739 70.6441 20.0579C70.5187 20.8433 70.4686 21.4488 70.4939 21.8741C70.5206 22.3008 70.5841 22.5307 70.6841 22.564C70.7854 22.5974 70.8174 22.6293 70.7801 22.66C70.7441 22.692 71.0035 22.7574 71.5581 22.856C72.1141 22.9547 72.6494 22.934 73.1641 22.794C73.6801 22.654 73.9533 22.5701 73.9839 22.5421C74.0133 22.5127 74.4047 22.3001 75.158 21.9041C75.9127 21.5068 76.4868 21.112 76.8802 20.72C77.2735 20.3267 77.498 20.0454 77.554 19.876C77.6087 19.7054 77.5226 19.5114 77.2959 19.294C77.0693 19.0767 76.7648 18.9434 76.3821 18.8941C75.9994 18.8448 75.4575 18.798 74.7561 18.754C74.0561 18.71 73.3381 18.7255 72.6021 18.8001C71.8647 18.8735 71.4581 18.9255 71.3821 18.9561" stroke="#44464A" stroke-width="2.5" stroke-linecap="round" stroke-linejoin="round"/>
<path d="M83.596 6.15619C83.596 6.15619 83.4841 6.12276 83.2601 6.05609C83.0348 5.98942 82.5968 7.36139 81.9461 10.1721C81.2941 12.9827 80.8088 15.3468 80.4901 17.2641C80.1714 19.1801 80.2894 21.2616 80.8441 23.5082C80.8121 23.5216 81.1153 23.5301 81.754 23.5341C81.7687 23.5781 81.8109 23.4841 81.8802 23.2521C81.9496 23.0201 82.008 22.8194 82.056 22.6501" stroke="#44464A" stroke-width="2.5" stroke-linecap="round" stroke-linejoin="round"/>
<path d="M95.11 15.9241C95.11 15.9067 95.11 15.7879 95.11 15.5679C95.3033 15.1972 95.0199 15.3459 94.2599 16.0139C93.4986 16.6819 92.8346 17.34 92.268 17.988C91.7 18.6374 91.1787 19.284 90.704 19.928C90.228 20.5733 90.0419 21.16 90.1459 21.688C91.0259 21.948 94.056 20.8506 99.236 18.396C99.1866 19.1226 98.836 20.3994 98.184 22.2261C97.5306 24.0541 97.478 27.9607 98.026 33.946C98.0567 33.946 98.0978 33.9345 98.1498 33.9118C98.2031 33.8878 98.2612 33.8526 98.3239 33.8059" stroke="#44464A" stroke-width="2.5" stroke-linecap="round" stroke-linejoin="round"/>
<path d="M107.138 20.7759C107.138 20.7759 107.138 20.7719 107.138 20.7639C107.138 20.7559 107.138 20.6839 107.138 20.5479C107.237 20.6785 107.38 20.7767 107.568 20.842C107.756 20.9074 107.879 20.9454 107.938 20.9561C107.995 20.9667 108.101 20.9832 108.254 21.0059C108.406 21.0272 108.506 21.0354 108.554 21.03C108.602 21.0247 108.649 21.0247 108.694 21.03C108.739 21.0354 109.101 21.0792 109.78 21.1619C110.46 21.2459 111.197 21.1373 111.992 20.8359C112.785 20.5359 113.287 20.2181 113.496 19.8821C113.704 19.5461 113.816 19.3007 113.832 19.146C113.848 18.9927 113.858 18.9568 113.862 19.0381C113.867 19.1208 113.857 18.9821 113.832 18.6221C113.807 18.2607 113.62 17.914 113.272 17.582C112.924 17.25 112.601 17.0527 112.302 16.99C112.003 16.9273 111.699 16.8333 111.388 16.708C111.076 16.5827 110.419 16.8473 109.418 17.502C108.415 18.158 107.561 18.8754 106.854 19.6541C106.147 20.4327 105.638 21.1125 105.326 21.6938C105.014 22.2752 104.805 22.7265 104.7 23.0479C104.595 23.3679 104.557 23.5686 104.588 23.6499C104.619 23.7312 104.593 23.9846 104.512 24.4099C104.431 24.8366 104.499 25.1967 104.716 25.49C104.933 25.782 105.219 25.9821 105.572 26.0901C105.925 26.1981 106.215 26.2586 106.442 26.272C106.667 26.2866 106.899 26.2866 107.138 26.272C107.377 26.2586 107.558 26.2872 107.682 26.3579C107.805 26.4299 108.303 26.3834 109.176 26.218C110.049 26.0527 110.819 25.7866 111.484 25.4199C112.151 25.0519 112.533 24.7499 112.632 24.5139C112.731 24.2766 112.826 24.088 112.918 23.948" stroke="#44464A" stroke-width="2.5" stroke-linecap="round" stroke-linejoin="round"/>
<path d="M116.884 20.408C116.884 20.408 116.879 20.4025 116.868 20.3919C116.859 20.3825 116.836 20.3752 116.8 20.3699C116.764 20.3646 116.757 20.3579 116.78 20.3499C116.801 20.3419 116.873 20.4066 116.996 20.544C117.119 20.68 117.626 20.8013 118.518 20.908C119.41 21.0147 120.111 21.0861 120.622 21.1221C121.133 21.1581 121.848 21.1067 122.768 20.968C123.687 20.828 124.357 20.61 124.78 20.314C125.204 20.018 125.491 19.7926 125.642 19.638C125.794 19.4833 125.904 19.2801 125.972 19.0281C126.041 18.7761 126.07 18.5781 126.058 18.4341C126.046 18.2888 125.986 18.1726 125.878 18.086C125.77 17.998 125.692 17.9347 125.644 17.896C125.597 17.8574 125.417 17.7321 125.102 17.5201C124.789 17.3094 124.191 17.1467 123.31 17.032C122.43 16.9173 121.664 16.9907 121.012 17.252C120.361 17.512 119.859 17.8432 119.506 18.2459C119.153 18.6499 118.895 19.4026 118.732 20.5039C118.569 21.6039 118.513 22.4527 118.564 23.0501C118.616 23.6474 119.005 24.318 119.732 25.062C120.459 25.806 121.218 26.2187 122.01 26.3001C122.802 26.3801 123.469 26.3406 124.012 26.1819C124.555 26.0232 124.963 25.5847 125.238 24.866C125.513 24.1487 125.696 23.6727 125.788 23.438" stroke="#44464A" stroke-width="2.5" stroke-linecap="round" stroke-linejoin="round"/>
<path d="M135.532 4.24396C135.775 3.72129 136.211 3.05066 136.842 2.23199C137.223 2.94133 136.691 5.44677 135.246 9.74811C133.799 14.0481 132.62 19.0874 131.708 24.866C131.713 24.83 131.698 24.8215 131.662 24.8401C131.627 24.8588 131.73 24.9027 131.97 24.972C132.21 25.0413 132.448 24.6748 132.684 23.8721C132.919 23.0695 133.059 22.5981 133.106 22.4581" stroke="#44464A" stroke-width="2.944" stroke-linecap="round" stroke-linejoin="round"/>
<path d="M131.478 20.2681C131.831 19.5481 133.252 18.9821 135.74 18.5701C138.225 18.1581 141.437 17.4927 145.374 16.574C145.327 16.574 144.942 16.6014 144.218 16.6561C143.493 16.7121 142.99 16.7781 142.71 16.8541" stroke="#44464A" stroke-width="2.5" stroke-linecap="round" stroke-linejoin="round"/>
<path d="M135.86 18.254C135.076 18.4473 137.144 21.1559 142.064 26.3799C141.955 26.3799 141.822 26.3687 141.666 26.346C141.51 26.322 141.33 26.2867 141.126 26.2401" stroke="#44464A" stroke-width="2.5" stroke-linecap="round" stroke-linejoin="round"/>
<path d="M150.728 26.8899C150.163 26.4752 149.977 26.3526 150.172 26.522C150.027 26.5766 149.933 26.6633 149.89 26.782C149.847 26.9006 149.803 27.0007 149.756 27.082" stroke="#44464A" stroke-width="2.5" stroke-linecap="round" stroke-linejoin="round"/>
<path d="M165.138 5.17413C165.274 5.0048 165.616 4.57204 166.164 3.87604C166.432 4.08137 165.939 6.50138 164.686 11.136C163.434 15.7694 162.303 19.4741 161.294 22.2501C160.283 25.0261 159.623 27.4601 159.314 29.5521C159.173 29.6841 159.308 29.608 159.72 29.324C160.131 29.0387 160.415 28.8173 160.572 28.66" stroke="#44464A" stroke-width="2.608" stroke-linecap="round" stroke-linejoin="round"/>
<path d="M169.006 21.108C169.024 21.12 169.056 21.1327 169.104 21.146C169.104 21.638 169.104 21.8713 169.104 21.846C168.815 21.7993 168.38 24.4468 167.798 29.7881C167.762 29.8388 167.955 29.9194 168.376 30.0301C168.799 30.1407 169.412 29.9981 170.216 29.6021C171.022 29.2048 171.719 28.5159 172.308 27.5359C172.899 26.5559 173.298 25.7086 173.506 24.9939C173.716 24.2779 173.838 23.5459 173.874 22.7979C173.909 22.0486 173.917 21.3527 173.9 20.71C173.883 20.0673 173.646 19.6306 173.19 19.3999C172.735 19.1706 172.169 19.1995 171.49 19.4861C170.81 19.7741 170.178 20.3259 169.594 21.1419C169.01 21.9579 168.638 22.7027 168.476 23.376C168.314 24.0494 168.278 24.6388 168.37 25.1441C168.462 25.6481 168.597 25.9693 168.774 26.108C168.951 26.2466 169.432 26.3619 170.214 26.4539C170.997 26.5472 171.789 26.4466 172.59 26.1519C173.392 25.8572 174.52 25.172 175.974 24.096C177.429 23.0213 179.093 22.178 180.968 21.566C181.216 20.9406 180.626 22.902 179.198 27.45C179.575 28.7433 183.126 26.5952 189.85 21.0059C190.114 20.6019 189.831 21.1168 189 22.5501C188.168 23.9821 187.761 25.764 187.778 27.896C188.112 28.036 188.509 27.9968 188.97 27.7781C189.433 27.5595 189.758 27.374 189.946 27.222" stroke="#44464A" stroke-width="2.5" stroke-linecap="round" stroke-linejoin="round"/>
<path d="M195.77 21.9481C195.51 21.5747 195.385 21.4646 195.394 21.618C194.746 21.6606 194.301 22.1281 194.058 23.0201C193.817 23.9134 193.661 24.6573 193.592 25.252C193.523 25.848 193.523 26.2561 193.594 26.4761C193.666 26.6975 194.012 26.9007 194.632 27.086C195.252 27.2727 196.215 27.3201 197.522 27.2281C198.83 27.1361 199.779 26.8566 200.37 26.39C200.959 25.9233 201.381 25.3913 201.636 24.794C201.889 24.1967 201.689 23.7493 201.034 23.452C200.379 23.1546 198.081 23.0101 194.138 23.0181C193.998 22.7061 194.087 22.3479 194.406 21.9439C194.726 21.5399 194.995 21.2147 195.214 20.9681" stroke="#44464A" stroke-width="2.5" stroke-linecap="round" stroke-linejoin="round"/>
<path d="M205.002 6.15607C205.39 5.53607 206.075 4.16868 207.056 2.05402C207.012 2.66068 206.735 4.23733 206.224 6.784C205.713 9.332 205.177 11.8873 204.616 14.45C204.053 17.0127 203.492 19.6081 202.932 22.2361C202.372 24.8641 202.121 27.4134 202.178 29.8841C202.643 29.8561 202.855 29.792 202.812 29.692C202.967 29.5546 203.095 29.4387 203.196 29.3441C203.296 29.2494 203.417 29.132 203.56 28.992" stroke="#44464A" stroke-width="2.8" stroke-linecap="round" stroke-linejoin="round"/>
</svg>
