<svg width="200" height="46" viewBox="0 0 200 46" fill="none" xmlns="http://www.w3.org/2000/svg">
<path d="M152 45.68L152.384 43.888H153.568L153.184 45.68H152Z" fill="#EDEDED"/>
<path d="M158.899 34.32H160.339L158.195 44.4H164.163L163.891 45.68H156.483L158.899 34.32Z" fill="#EDEDED"/>
<path d="M169.139 45.84C168.52 45.84 167.987 45.6853 167.539 45.376C167.091 45.056 166.749 44.6347 166.515 44.112C166.28 43.5787 166.163 42.9973 166.163 42.368C166.163 41.696 166.285 41.0507 166.531 40.432C166.787 39.8133 167.128 39.264 167.555 38.784C167.992 38.2933 168.488 37.904 169.043 37.616C169.597 37.328 170.179 37.184 170.787 37.184C171.427 37.184 171.96 37.36 172.387 37.712C172.813 38.064 173.112 38.4907 173.283 38.992L173.651 37.328H175.059L173.651 43.952C173.64 43.9947 173.629 44.032 173.619 44.064C173.619 44.096 173.619 44.128 173.619 44.16C173.619 44.352 173.736 44.4533 173.971 44.464L173.715 45.68C173.597 45.6907 173.491 45.7013 173.395 45.712C173.309 45.7333 173.229 45.744 173.155 45.744C172.856 45.744 172.627 45.6747 172.467 45.536C172.317 45.3973 172.243 45.2267 172.243 45.024C172.243 44.8427 172.291 44.5387 172.387 44.112C171.971 44.6453 171.464 45.0667 170.867 45.376C170.28 45.6853 169.704 45.84 169.139 45.84ZM169.747 44.624C170.056 44.624 170.397 44.544 170.771 44.384C171.144 44.2133 171.491 43.984 171.811 43.696C172.131 43.408 172.36 43.0933 172.499 42.752L172.995 40.352C172.952 39.9893 172.829 39.664 172.627 39.376C172.424 39.0773 172.173 38.8427 171.875 38.672C171.587 38.4907 171.277 38.4 170.947 38.4C170.499 38.4 170.077 38.512 169.683 38.736C169.288 38.9493 168.936 39.2373 168.627 39.6C168.328 39.9627 168.088 40.368 167.907 40.816C167.736 41.2533 167.651 41.696 167.651 42.144C167.651 42.6027 167.736 43.0187 167.907 43.392C168.077 43.7653 168.317 44.064 168.627 44.288C168.947 44.512 169.32 44.624 169.747 44.624Z" fill="#EDEDED"/>
<path d="M178.33 37.328H179.61L179.226 39.12C179.663 38.5333 180.212 38.064 180.874 37.712C181.546 37.36 182.228 37.184 182.922 37.184C183.594 37.184 184.063 37.3653 184.33 37.728C184.607 38.08 184.746 38.5547 184.746 39.152C184.746 39.3867 184.724 39.632 184.682 39.888C184.65 40.144 184.607 40.4107 184.554 40.688L183.498 45.68H182.09L183.082 41.008C183.178 40.5387 183.226 40.1387 183.226 39.808C183.226 38.9013 182.847 38.448 182.09 38.448C181.738 38.448 181.364 38.544 180.97 38.736C180.575 38.928 180.207 39.1893 179.866 39.52C179.524 39.84 179.247 40.2133 179.034 40.64L177.962 45.68H176.554L178.33 37.328Z" fill="#EDEDED"/>
<path d="M189.84 45.84C189.221 45.84 188.688 45.6853 188.24 45.376C187.792 45.056 187.451 44.6347 187.216 44.112C186.981 43.5787 186.864 42.9973 186.864 42.368C186.864 41.696 186.987 41.0507 187.232 40.432C187.488 39.8133 187.829 39.264 188.256 38.784C188.693 38.2933 189.189 37.904 189.744 37.616C190.299 37.328 190.88 37.184 191.488 37.184C192.128 37.184 192.661 37.36 193.088 37.712C193.515 38.064 193.813 38.4907 193.984 38.992L195.056 34H196.464L194.352 43.952C194.341 43.9947 194.331 44.032 194.32 44.064C194.32 44.096 194.32 44.128 194.32 44.16C194.32 44.352 194.437 44.4533 194.672 44.464L194.416 45.68C194.299 45.6907 194.192 45.7013 194.096 45.712C194.011 45.7333 193.931 45.744 193.856 45.744C193.557 45.744 193.328 45.6747 193.168 45.536C193.019 45.3973 192.944 45.2267 192.944 45.024C192.944 44.928 192.955 44.8107 192.976 44.672C192.997 44.5333 193.035 44.3467 193.088 44.112C192.672 44.6453 192.165 45.0667 191.568 45.376C190.981 45.6853 190.405 45.84 189.84 45.84ZM190.448 44.624C190.757 44.624 191.099 44.544 191.472 44.384C191.845 44.2133 192.192 43.984 192.512 43.696C192.832 43.408 193.061 43.0933 193.2 42.752L193.696 40.352C193.653 39.9893 193.531 39.664 193.328 39.376C193.125 39.0773 192.875 38.8427 192.576 38.672C192.288 38.4907 191.979 38.4 191.648 38.4C191.2 38.4 190.779 38.512 190.384 38.736C189.989 38.9493 189.637 39.2373 189.328 39.6C189.029 39.9627 188.789 40.368 188.608 40.816C188.437 41.2533 188.352 41.696 188.352 42.144C188.352 42.6027 188.437 43.0187 188.608 43.392C188.779 43.7653 189.019 44.064 189.328 44.288C189.648 44.512 190.021 44.624 190.448 44.624Z" fill="#EDEDED"/>
<path d="M9.02564 31.2102C7.19802 31.2102 5.46881 30.9149 3.83801 30.3245C2.23532 29.7059 0.955987 28.8202 0 27.6674L3.24754 23.5341C5.46881 25.4461 7.66195 26.4021 9.82698 26.4021C10.7267 26.4021 11.4015 26.2193 11.8514 25.8538C12.3294 25.4602 12.5684 24.9541 12.5684 24.3355C12.5684 23.8294 12.3294 23.4217 11.8514 23.1124C11.3734 22.8031 10.5721 22.4657 9.4474 22.1002C7.14178 21.3691 5.46881 20.6381 4.42847 19.907C3.38813 19.1478 2.86796 18.0935 2.86796 16.7438C2.86796 15.1411 3.31784 13.6931 4.21759 12.3997C5.14546 11.1063 6.38262 10.0941 7.92907 9.36305C9.47551 8.60388 11.1907 8.2243 13.0745 8.2243C14.6491 8.2243 16.0831 8.44923 17.3765 8.89911C18.6699 9.34899 19.8508 10.1644 20.9192 11.3453L17.4608 15.3942C16.4486 14.5226 15.5348 13.904 14.7194 13.5385C13.904 13.1448 13.0745 12.948 12.231 12.948C11.4156 12.948 10.7408 13.1308 10.2066 13.4963C9.70045 13.8618 9.4474 14.382 9.4474 15.0568C9.4474 15.5629 9.67234 15.9565 10.1222 16.2377C10.5721 16.5189 11.3734 16.8282 12.5262 17.1656C14.9162 17.8685 16.6454 18.6417 17.7139 19.4853C18.8104 20.3288 19.3587 21.4816 19.3587 22.9437C19.3587 24.5464 18.9229 25.9803 18.0513 27.2456C17.2078 28.4828 15.9987 29.4528 14.4242 30.1558C12.8777 30.8587 11.0782 31.2102 9.02564 31.2102Z" fill="#3C3D41"/>
<path d="M32.1588 31.2102C30.528 31.2102 29.1221 30.8165 27.9412 30.0292C26.7884 29.2419 25.8886 28.1735 25.2419 26.8239C24.6234 25.4742 24.3141 23.9418 24.3141 22.2267C24.3141 20.3428 24.6374 18.5714 25.2841 16.9125C25.9308 15.2255 26.8165 13.7353 27.9412 12.4419C29.0659 11.1204 30.3452 10.0941 31.7792 9.36305C33.2413 8.60388 34.7737 8.2243 36.3764 8.2243C37.8103 8.2243 39.0334 8.60388 40.0457 9.36305C41.086 10.0941 41.7889 11.0641 42.1545 12.2732L42.9136 8.77258H49.7039L46.5829 23.1967C46.5267 23.5904 46.4986 23.8856 46.4986 24.0824C46.4986 24.701 46.85 25.0384 47.553 25.0947L46.3721 30.7884C45.1349 31.0133 44.1789 31.1258 43.5041 31.1258C42.4075 31.1258 41.5359 30.9149 40.8892 30.4932C40.2425 30.0433 39.9191 29.3122 39.9191 28.3C39.9191 27.9626 39.9613 27.569 40.0457 27.1191C39.0053 28.4968 37.7822 29.5231 36.3764 30.1979C34.9705 30.8727 33.5646 31.2102 32.1588 31.2102ZM35.1954 25.5164C36.039 25.5164 36.8965 25.2493 37.7682 24.7151C38.6398 24.1527 39.399 23.3936 40.0457 22.4376L41.0157 17.7982C40.8751 16.6735 40.4534 15.7597 39.7504 15.0568C39.0475 14.3257 38.2462 13.9602 37.3464 13.9602C36.3061 13.9602 35.336 14.3117 34.4363 15.0146C33.5646 15.6894 32.8477 16.5751 32.2853 17.6717C31.723 18.7402 31.4418 19.893 31.4418 21.1301C31.4418 22.3954 31.7651 23.4498 32.4118 24.2933C33.0866 25.1087 34.0145 25.5164 35.1954 25.5164Z" fill="#3C3D41"/>
<path d="M59.2268 0H65.9749L64.6675 6.1155H57.9193L59.2268 0ZM57.4132 8.64606H64.1614L59.4377 30.7884H52.6895L57.4132 8.64606Z" fill="#3C3D41"/>
<path d="M75.2358 31.2102C73.605 31.2102 72.1992 30.8165 71.0182 30.0292C69.8654 29.2419 68.9657 28.1735 68.319 26.8239C67.7004 25.4742 67.3911 23.9418 67.3911 22.2267C67.3911 20.3428 67.7145 18.5714 68.3612 16.9125C69.0079 15.2255 69.8936 13.7353 71.0182 12.4419C72.1429 11.1204 73.4223 10.0941 74.8563 9.36305C76.3184 8.60388 77.8507 8.2243 79.4534 8.2243C80.8874 8.2243 82.1105 8.60388 83.1227 9.36305C84.1631 10.0941 84.866 11.0641 85.2315 12.2732L87.8464 0H94.6367L89.66 23.1967C89.6038 23.5904 89.5756 23.8856 89.5756 24.0824C89.5756 24.701 89.9271 25.0384 90.63 25.0947L89.4491 30.7884C88.212 31.0133 87.256 31.1258 86.5811 31.1258C85.5127 31.1258 84.6411 30.9149 83.9662 30.4932C83.2914 30.0714 82.954 29.3825 82.954 28.4265C82.954 28.1173 83.0103 27.6814 83.1227 27.1191C82.0824 28.4968 80.8593 29.5231 79.4534 30.1979C78.0476 30.8727 76.6417 31.2102 75.2358 31.2102ZM78.2725 25.5164C79.116 25.5164 79.9736 25.2493 80.8452 24.7151C81.7169 24.1527 82.476 23.3936 83.1227 22.4376L84.0928 17.7982C83.9522 16.6735 83.5304 15.7597 82.8275 15.0568C82.1246 14.3257 81.3232 13.9602 80.4235 13.9602C79.3831 13.9602 78.4131 14.3117 77.5133 15.0146C76.6417 15.6894 75.9247 16.5751 75.3624 17.6717C74.8 18.7402 74.5188 19.893 74.5188 21.1301C74.5188 22.3954 74.8422 23.4498 75.4889 24.2933C76.1637 25.1087 77.0916 25.5164 78.2725 25.5164Z" fill="#3C3D41"/>
<path d="M102.937 40.1936C100.687 40.1936 98.8173 39.8 97.3271 39.0127C95.865 38.2535 94.6841 37.171 93.7843 35.7651L98.1706 32.0958C98.733 33.0237 99.5202 33.7548 100.532 34.289C101.573 34.8513 102.726 35.1325 103.991 35.1325C105.509 35.1325 106.929 34.6686 108.251 33.7407C109.572 32.841 110.444 31.3507 110.866 29.2701L111.287 27.1191C110.416 28.3563 109.305 29.2982 107.955 29.9449C106.634 30.5635 105.284 30.8727 103.907 30.8727C102.388 30.8727 101.081 30.4932 99.9842 29.734C98.9157 28.9467 98.1003 27.8923 97.538 26.5708C96.9756 25.2493 96.6945 23.7731 96.6945 22.1423C96.6945 20.2585 97.0319 18.4871 97.7067 16.8282C98.3815 15.1411 99.2953 13.665 100.448 12.3997C101.601 11.1063 102.937 10.0941 104.455 9.36305C105.973 8.60388 107.576 8.2243 109.263 8.2243C110.809 8.2243 112.103 8.58982 113.143 9.32087C114.183 10.0238 114.914 11.0079 115.336 12.2732L116.138 8.64606H122L117.614 29.2701C117.136 31.5194 116.194 33.4595 114.788 35.0903C113.41 36.7211 111.695 37.9724 109.642 38.844C107.618 39.7437 105.383 40.1936 102.937 40.1936ZM107.449 25.5164C108.349 25.5164 109.221 25.2352 110.064 24.6729C110.936 24.0824 111.681 23.3373 112.3 22.4376L113.312 17.7982C113.143 16.6454 112.707 15.7175 112.004 15.0146C111.301 14.3117 110.5 13.9602 109.6 13.9602C108.56 13.9602 107.59 14.3117 106.69 15.0146C105.819 15.7175 105.102 16.6173 104.539 17.7139C104.005 18.8104 103.738 19.9492 103.738 21.1301C103.738 22.3673 104.075 23.4076 104.75 24.2511C105.425 25.0947 106.325 25.5164 107.449 25.5164Z" fill="#3C3D41"/>
<path d="M134.575 31.2102C132.663 31.2102 131.004 30.8165 129.599 30.0292C128.221 29.2419 127.152 28.1454 126.393 26.7395C125.662 25.3055 125.297 23.6747 125.297 21.8471C125.297 19.9914 125.648 18.2481 126.351 16.6173C127.082 14.9584 128.094 13.5103 129.388 12.2732C130.709 11.0079 132.228 10.0238 133.943 9.32087C135.686 8.58982 137.556 8.2243 139.552 8.2243C142.055 8.2243 144.037 8.78664 145.499 9.91133C146.989 11.0079 147.734 12.5544 147.734 14.5507C147.734 19.4431 143.348 21.8893 134.575 21.8893C134.182 21.8893 133.76 21.8893 133.31 21.8893C132.888 21.8612 132.452 21.833 132.003 21.8049C132.003 21.9174 132.003 22.0299 132.003 22.1423C132.003 23.4638 132.298 24.5042 132.888 25.2634C133.479 25.9944 134.449 26.3599 135.798 26.3599C136.811 26.3599 137.739 26.1209 138.582 25.6429C139.454 25.1649 140.157 24.5042 140.691 23.6607L146.005 25.3477C145.218 26.5005 144.205 27.5268 142.968 28.4265C141.759 29.2982 140.424 29.987 138.962 30.4932C137.528 30.9712 136.066 31.2102 134.575 31.2102ZM138.456 13.0745C137.218 13.0745 136.108 13.5103 135.124 14.382C134.14 15.2255 133.366 16.3221 132.804 17.6717C133.423 17.6998 134.013 17.7139 134.575 17.7139C137.05 17.7139 138.779 17.503 139.763 17.0812C140.747 16.6595 141.239 16.0128 141.239 15.1411C141.239 14.4944 140.972 13.9883 140.438 13.6228C139.932 13.2573 139.271 13.0745 138.456 13.0745Z" fill="#3C3D41"/>
<path d="M160.624 31.2102C158.712 31.2102 157.053 30.8165 155.647 30.0292C154.269 29.2419 153.201 28.1454 152.442 26.7395C151.711 25.3055 151.345 23.6747 151.345 21.8471C151.345 19.9914 151.697 18.2481 152.4 16.6173C153.131 14.9584 154.143 13.5103 155.436 12.2732C156.758 11.0079 158.276 10.0238 159.991 9.32087C161.734 8.58982 163.604 8.2243 165.601 8.2243C168.103 8.2243 170.085 8.78664 171.547 9.91133C173.038 11.0079 173.783 12.5544 173.783 14.5507C173.783 19.4431 169.396 21.8893 160.624 21.8893C160.23 21.8893 159.808 21.8893 159.359 21.8893C158.937 21.8612 158.501 21.833 158.051 21.8049C158.051 21.9174 158.051 22.0299 158.051 22.1423C158.051 23.4638 158.346 24.5042 158.937 25.2634C159.527 25.9944 160.497 26.3599 161.847 26.3599C162.859 26.3599 163.787 26.1209 164.631 25.6429C165.502 25.1649 166.205 24.5042 166.739 23.6607L172.054 25.3477C171.266 26.5005 170.254 27.5268 169.017 28.4265C167.808 29.2982 166.472 29.987 165.01 30.4932C163.576 30.9712 162.114 31.2102 160.624 31.2102ZM164.504 13.0745C163.267 13.0745 162.156 13.5103 161.172 14.382C160.188 15.2255 159.415 16.3221 158.852 17.6717C159.471 17.6998 160.062 17.7139 160.624 17.7139C163.098 17.7139 164.827 17.503 165.812 17.0812C166.796 16.6595 167.288 16.0128 167.288 15.1411C167.288 14.4944 167.021 13.9883 166.486 13.6228C165.98 13.2573 165.319 13.0745 164.504 13.0745Z" fill="#3C3D41"/>
<path d="M186.883 21.2145C189.076 20.7927 190.792 20.1038 192.029 19.1479C193.294 18.1919 193.927 17.1515 193.927 16.0268C193.927 15.4083 193.744 14.9443 193.378 14.635C193.041 14.2976 192.605 14.1289 192.071 14.1289C191.256 14.1289 190.412 14.4242 189.54 15.0146C188.697 15.6051 187.896 16.4064 187.136 17.4186C186.377 18.4027 185.759 19.5134 185.281 20.7505L183.172 30.7884H176.466L183.003 0H189.709L186.672 14.1711C187.797 12.3716 189.076 10.9657 190.51 9.95351C191.973 8.91317 193.561 8.393 195.276 8.393C196.795 8.393 197.962 8.84288 198.777 9.74263C199.592 10.6143 200 11.8233 200 13.3698C200 15.2255 199.48 16.9547 198.439 18.5574C197.399 20.132 195.923 21.4253 194.011 22.4376L197.765 30.7884H190.595L186.883 21.2145Z" fill="#3C3D41"/>
</svg>
